<mxfile host="app.diagrams.net" agent="Mozilla/5.0 (X11; Ubuntu; Linux x86_64; rv:139.0) Gecko/20100101 Firefox/139.0" version="27.0.9">
  <diagram name="Page-1" id="uh3iiDSVA0Se7oIFrMVe">
    <mxGraphModel dx="2108" dy="626" grid="1" gridSize="10" guides="1" tooltips="1" connect="1" arrows="1" fold="1" page="1" pageScale="1" pageWidth="827" pageHeight="1169" math="0" shadow="0">
      <root>
        <mxCell id="0" />
        <mxCell id="1" parent="0" />
        <mxCell id="_Zmzz9mBOBpQStMglWqq-3" value="Mac dest" style="rounded=0;whiteSpace=wrap;html=1;" parent="1" vertex="1">
          <mxGeometry y="120" width="60" height="20" as="geometry" />
        </mxCell>
        <mxCell id="_Zmzz9mBOBpQStMglWqq-4" value="Mac src" style="rounded=0;whiteSpace=wrap;html=1;" parent="1" vertex="1">
          <mxGeometry x="60" y="120" width="60" height="20" as="geometry" />
        </mxCell>
        <mxCell id="_Zmzz9mBOBpQStMglWqq-5" value="Ethertype" style="rounded=0;whiteSpace=wrap;html=1;" parent="1" vertex="1">
          <mxGeometry x="120" y="120" width="60" height="20" as="geometry" />
        </mxCell>
        <mxCell id="_Zmzz9mBOBpQStMglWqq-6" value="Payload" style="rounded=0;whiteSpace=wrap;html=1;" parent="1" vertex="1">
          <mxGeometry x="180" y="120" width="500" height="20" as="geometry" />
        </mxCell>
        <mxCell id="_Zmzz9mBOBpQStMglWqq-12" value="Ethernet Frame" style="text;html=1;align=center;verticalAlign=middle;whiteSpace=wrap;rounded=0;" parent="1" vertex="1">
          <mxGeometry x="-100" y="120" width="100" height="20" as="geometry" />
        </mxCell>
        <mxCell id="_Zmzz9mBOBpQStMglWqq-13" value="Protocol Packet" style="text;html=1;align=center;verticalAlign=middle;whiteSpace=wrap;rounded=0;" parent="1" vertex="1">
          <mxGeometry x="-100" y="200" width="100" height="20" as="geometry" />
        </mxCell>
        <mxCell id="_Zmzz9mBOBpQStMglWqq-14" value="Message" style="text;html=1;align=center;verticalAlign=middle;whiteSpace=wrap;rounded=0;" parent="1" vertex="1">
          <mxGeometry x="-100" y="280" width="100" height="20" as="geometry" />
        </mxCell>
        <mxCell id="_Zmzz9mBOBpQStMglWqq-17" value="" style="endArrow=none;dashed=1;html=1;rounded=0;entryX=1;entryY=1;entryDx=0;entryDy=0;exitX=1;exitY=0;exitDx=0;exitDy=0;" parent="1" edge="1">
          <mxGeometry width="50" height="50" relative="1" as="geometry">
            <mxPoint x="680" y="280" as="sourcePoint" />
            <mxPoint x="680" y="220" as="targetPoint" />
          </mxGeometry>
        </mxCell>
        <mxCell id="_Zmzz9mBOBpQStMglWqq-18" value="" style="endArrow=none;dashed=1;html=1;rounded=0;entryX=0;entryY=1;entryDx=0;entryDy=0;exitX=0;exitY=0;exitDx=0;exitDy=0;" parent="1" edge="1">
          <mxGeometry width="50" height="50" relative="1" as="geometry">
            <mxPoint x="-3.069544618483633e-12" y="280" as="sourcePoint" />
            <mxPoint y="220" as="targetPoint" />
          </mxGeometry>
        </mxCell>
        <mxCell id="_Zmzz9mBOBpQStMglWqq-19" value="" style="endArrow=none;dashed=1;html=1;rounded=0;exitX=0;exitY=0;exitDx=0;exitDy=0;entryX=0;entryY=1;entryDx=0;entryDy=0;" parent="1" edge="1">
          <mxGeometry width="50" height="50" relative="1" as="geometry">
            <mxPoint y="200" as="sourcePoint" />
            <mxPoint x="180.00000000000045" y="140" as="targetPoint" />
          </mxGeometry>
        </mxCell>
        <mxCell id="_Zmzz9mBOBpQStMglWqq-20" value="" style="endArrow=none;dashed=1;html=1;rounded=0;exitX=1;exitY=0;exitDx=0;exitDy=0;entryX=1;entryY=1;entryDx=0;entryDy=0;" parent="1" target="_Zmzz9mBOBpQStMglWqq-6" edge="1">
          <mxGeometry width="50" height="50" relative="1" as="geometry">
            <mxPoint x="680" y="200" as="sourcePoint" />
            <mxPoint x="360" y="150" as="targetPoint" />
          </mxGeometry>
        </mxCell>
        <mxCell id="_Zmzz9mBOBpQStMglWqq-21" value="6" style="text;html=1;align=center;verticalAlign=middle;whiteSpace=wrap;rounded=0;" parent="1" vertex="1">
          <mxGeometry x="10" y="100" width="20" height="20" as="geometry" />
        </mxCell>
        <mxCell id="_Zmzz9mBOBpQStMglWqq-22" value="6" style="text;html=1;align=center;verticalAlign=middle;whiteSpace=wrap;rounded=0;" parent="1" vertex="1">
          <mxGeometry x="70" y="100" width="20" height="20" as="geometry" />
        </mxCell>
        <mxCell id="_Zmzz9mBOBpQStMglWqq-23" value="2" style="text;html=1;align=center;verticalAlign=middle;whiteSpace=wrap;rounded=0;" parent="1" vertex="1">
          <mxGeometry x="130" y="100" width="20" height="20" as="geometry" />
        </mxCell>
        <mxCell id="_Zmzz9mBOBpQStMglWqq-24" value="46 - 1500" style="text;html=1;align=center;verticalAlign=middle;whiteSpace=wrap;rounded=0;" parent="1" vertex="1">
          <mxGeometry x="180" y="100" width="500" height="20" as="geometry" />
        </mxCell>
        <mxCell id="y25KU0WXKC6aMiE5-FGc-14" value="Protocol Address" style="text;html=1;align=center;verticalAlign=middle;whiteSpace=wrap;rounded=0;" parent="1" vertex="1">
          <mxGeometry x="-100" y="340" width="100" height="20" as="geometry" />
        </mxCell>
        <mxCell id="y25KU0WXKC6aMiE5-FGc-50" value="Address dest" style="rounded=0;whiteSpace=wrap;html=1;" parent="1" vertex="1">
          <mxGeometry y="200" width="80" height="20" as="geometry" />
        </mxCell>
        <mxCell id="y25KU0WXKC6aMiE5-FGc-51" value="Length" style="rounded=0;whiteSpace=wrap;html=1;" parent="1" vertex="1">
          <mxGeometry x="400" y="200" width="40" height="20" as="geometry" />
        </mxCell>
        <mxCell id="y25KU0WXKC6aMiE5-FGc-52" value="Data" style="rounded=0;whiteSpace=wrap;html=1;" parent="1" vertex="1">
          <mxGeometry x="480" y="200" width="200" height="20" as="geometry" />
        </mxCell>
        <mxCell id="y25KU0WXKC6aMiE5-FGc-53" value="12" style="text;html=1;align=center;verticalAlign=middle;whiteSpace=wrap;rounded=0;" parent="1" vertex="1">
          <mxGeometry y="180" width="80" height="20" as="geometry" />
        </mxCell>
        <mxCell id="y25KU0WXKC6aMiE5-FGc-54" value="12" style="text;html=1;align=center;verticalAlign=middle;whiteSpace=wrap;rounded=0;" parent="1" vertex="1">
          <mxGeometry x="80" y="180" width="70" height="20" as="geometry" />
        </mxCell>
        <mxCell id="y25KU0WXKC6aMiE5-FGc-55" value="0 - 1431" style="text;html=1;align=center;verticalAlign=middle;whiteSpace=wrap;rounded=0;" parent="1" vertex="1">
          <mxGeometry x="480" y="180" width="200" height="20" as="geometry" />
        </mxCell>
        <mxCell id="y25KU0WXKC6aMiE5-FGc-56" value="Address src" style="rounded=0;whiteSpace=wrap;html=1;" parent="1" vertex="1">
          <mxGeometry x="80" y="200" width="70" height="20" as="geometry" />
        </mxCell>
        <mxCell id="y25KU0WXKC6aMiE5-FGc-57" value="4" style="text;html=1;align=center;verticalAlign=middle;whiteSpace=wrap;rounded=0;" parent="1" vertex="1">
          <mxGeometry x="400" y="180" width="40" height="20" as="geometry" />
        </mxCell>
        <mxCell id="y25KU0WXKC6aMiE5-FGc-58" value="" style="endArrow=none;dashed=1;html=1;rounded=0;entryX=0;entryY=1;entryDx=0;entryDy=0;exitX=0;exitY=1;exitDx=0;exitDy=0;" parent="1" source="y25KU0WXKC6aMiE5-FGc-70" target="y25KU0WXKC6aMiE5-FGc-59" edge="1">
          <mxGeometry width="50" height="50" relative="1" as="geometry">
            <mxPoint y="370" as="sourcePoint" />
            <mxPoint x="30" y="300" as="targetPoint" />
          </mxGeometry>
        </mxCell>
        <mxCell id="y25KU0WXKC6aMiE5-FGc-59" value="Address dest" style="rounded=0;whiteSpace=wrap;html=1;" parent="1" vertex="1">
          <mxGeometry y="280" width="80" height="20" as="geometry" />
        </mxCell>
        <mxCell id="y25KU0WXKC6aMiE5-FGc-60" value="Length" style="rounded=0;whiteSpace=wrap;html=1;" parent="1" vertex="1">
          <mxGeometry x="400" y="280" width="40" height="20" as="geometry" />
        </mxCell>
        <mxCell id="y25KU0WXKC6aMiE5-FGc-61" value="Data" style="rounded=0;whiteSpace=wrap;html=1;" parent="1" vertex="1">
          <mxGeometry x="480" y="280" width="200" height="20" as="geometry" />
        </mxCell>
        <mxCell id="y25KU0WXKC6aMiE5-FGc-62" value="12" style="text;html=1;align=center;verticalAlign=middle;whiteSpace=wrap;rounded=0;" parent="1" vertex="1">
          <mxGeometry y="260" width="80" height="20" as="geometry" />
        </mxCell>
        <mxCell id="y25KU0WXKC6aMiE5-FGc-63" value="12" style="text;html=1;align=center;verticalAlign=middle;whiteSpace=wrap;rounded=0;" parent="1" vertex="1">
          <mxGeometry x="80" y="260" width="70" height="20" as="geometry" />
        </mxCell>
        <mxCell id="y25KU0WXKC6aMiE5-FGc-64" value="0 -&amp;nbsp;1431" style="text;html=1;align=center;verticalAlign=middle;whiteSpace=wrap;rounded=0;" parent="1" vertex="1">
          <mxGeometry x="480" y="260" width="200" height="20" as="geometry" />
        </mxCell>
        <mxCell id="y25KU0WXKC6aMiE5-FGc-65" value="Address src" style="rounded=0;whiteSpace=wrap;html=1;" parent="1" vertex="1">
          <mxGeometry x="80" y="280" width="70" height="20" as="geometry" />
        </mxCell>
        <mxCell id="y25KU0WXKC6aMiE5-FGc-66" value="4" style="text;html=1;align=center;verticalAlign=middle;whiteSpace=wrap;rounded=0;" parent="1" vertex="1">
          <mxGeometry x="400" y="260" width="40" height="20" as="geometry" />
        </mxCell>
        <mxCell id="y25KU0WXKC6aMiE5-FGc-67" value="MAC" style="rounded=0;whiteSpace=wrap;html=1;" parent="1" vertex="1">
          <mxGeometry y="340" width="50" height="20" as="geometry" />
        </mxCell>
        <mxCell id="y25KU0WXKC6aMiE5-FGc-68" value="SysID" style="rounded=0;whiteSpace=wrap;html=1;" parent="1" vertex="1">
          <mxGeometry x="50" y="340" width="50" height="20" as="geometry" />
        </mxCell>
        <mxCell id="y25KU0WXKC6aMiE5-FGc-69" value="Port" style="rounded=0;whiteSpace=wrap;html=1;" parent="1" vertex="1">
          <mxGeometry x="100" y="340" width="40" height="20" as="geometry" />
        </mxCell>
        <mxCell id="y25KU0WXKC6aMiE5-FGc-70" value="6" style="text;html=1;align=center;verticalAlign=middle;whiteSpace=wrap;rounded=0;" parent="1" vertex="1">
          <mxGeometry y="320" width="50" height="20" as="geometry" />
        </mxCell>
        <mxCell id="y25KU0WXKC6aMiE5-FGc-71" value="4" style="text;html=1;align=center;verticalAlign=middle;whiteSpace=wrap;rounded=0;" parent="1" vertex="1">
          <mxGeometry x="50" y="320" width="50" height="20" as="geometry" />
        </mxCell>
        <mxCell id="y25KU0WXKC6aMiE5-FGc-72" value="2" style="text;html=1;align=center;verticalAlign=middle;whiteSpace=wrap;rounded=0;" parent="1" vertex="1">
          <mxGeometry x="100" y="320" width="40" height="20" as="geometry" />
        </mxCell>
        <mxCell id="y25KU0WXKC6aMiE5-FGc-73" value="" style="endArrow=none;dashed=1;html=1;rounded=0;entryX=0;entryY=1;entryDx=0;entryDy=0;exitX=1;exitY=1;exitDx=0;exitDy=0;" parent="1" source="y25KU0WXKC6aMiE5-FGc-72" edge="1">
          <mxGeometry width="50" height="50" relative="1" as="geometry">
            <mxPoint x="79.43" y="340" as="sourcePoint" />
            <mxPoint x="79.43" y="300" as="targetPoint" />
          </mxGeometry>
        </mxCell>
        <mxCell id="y25KU0WXKC6aMiE5-FGc-74" value="O tamanho de todos os campos são representados em Bytes" style="text;html=1;align=center;verticalAlign=middle;whiteSpace=wrap;rounded=0;" parent="1" vertex="1">
          <mxGeometry x="489" y="430" width="191" height="20" as="geometry" />
        </mxCell>
        <mxCell id="KVXpcubTUPsC0JayO_s4-41" value="O tamanho de todos os campos são representados em Bytes" style="text;html=1;align=center;verticalAlign=middle;whiteSpace=wrap;rounded=0;" parent="1" vertex="1">
          <mxGeometry x="460.25" y="830" width="191" height="20" as="geometry" />
        </mxCell>
        <mxCell id="KVXpcubTUPsC0JayO_s4-47" value="&lt;div align=&quot;left&quot;&gt;MAC é obtido utilizando Protocol::getNICPAddr(), o qual&amp;nbsp; obtem endereço da SocketNIC&lt;/div&gt;&lt;div align=&quot;left&quot;&gt;&lt;br&gt;&lt;/div&gt;&lt;div align=&quot;left&quot;&gt;SysId é obtido pelo método Protocol::getSysID(), o qual retorna o SysID fornecido pelo usuário durante a instanciaçao de Protocol&lt;/div&gt;&lt;div&gt;&lt;br&gt;&lt;/div&gt;&lt;div&gt;Porta do comunicador destino deve ser fornecida pelo usuário&lt;/div&gt;" style="shape=note;whiteSpace=wrap;html=1;backgroundOutline=1;darkOpacity=0.05;align=left;fillColor=#E6E6E6;" parent="1" vertex="1">
          <mxGeometry x="-110" y="760" width="340" height="130" as="geometry" />
        </mxCell>
        <mxCell id="KVXpcubTUPsC0JayO_s4-49" value="&lt;div align=&quot;left&quot;&gt;Durante o envio, Protocol é encarregado de:&lt;br&gt;1) Alocar um Buffer por uma das NICs&lt;/div&gt;&lt;div align=&quot;left&quot;&gt;2) Preencher o cabeçalho Ethernet&lt;/div&gt;&lt;div align=&quot;left&quot;&gt;3) Copiar a mensagem para o Pacote do protocolo, o qual é o conteúdo do payload do quadro Ethernet&lt;/div&gt;4) Preencher timestamp, bit de sincronização &lt;b&gt;e bit needSync&lt;/b&gt;" style="shape=note;whiteSpace=wrap;html=1;backgroundOutline=1;darkOpacity=0.05;align=left;fillColor=#E6E6E6;" parent="1" vertex="1">
          <mxGeometry x="691.25" y="490" width="270" height="120" as="geometry" />
        </mxCell>
        <mxCell id="KVXpcubTUPsC0JayO_s4-50" value="&lt;div&gt;Durante o recebimento o conteúdo do&lt;/div&gt;&lt;div&gt;payload é copiado do Buffer pela NIC&lt;/div&gt;&lt;div&gt;para um Pacote de Protocol.&lt;/div&gt;&lt;div&gt;&lt;br&gt;&lt;/div&gt;&lt;div&gt;Protocol preenche a mensagem com os dados do Pacote recebido.&lt;/div&gt;" style="shape=note;whiteSpace=wrap;html=1;backgroundOutline=1;darkOpacity=0.05;align=left;fillColor=#E6E6E6;" parent="1" vertex="1">
          <mxGeometry x="691.25" y="820" width="270" height="100" as="geometry" />
        </mxCell>
        <mxCell id="ssQSO5jhh2rVMjGIj6xP-1" value="Control" style="rounded=0;whiteSpace=wrap;html=1;" parent="1" vertex="1">
          <mxGeometry x="150" y="200" width="60" height="20" as="geometry" />
        </mxCell>
        <mxCell id="ssQSO5jhh2rVMjGIj6xP-2" value="1" style="text;html=1;align=center;verticalAlign=middle;whiteSpace=wrap;rounded=0;" parent="1" vertex="1">
          <mxGeometry x="150" y="180" width="60" height="20" as="geometry" />
        </mxCell>
        <mxCell id="ssQSO5jhh2rVMjGIj6xP-3" value="Control" style="rounded=0;whiteSpace=wrap;html=1;" parent="1" vertex="1">
          <mxGeometry x="150" y="280" width="60" height="20" as="geometry" />
        </mxCell>
        <mxCell id="ssQSO5jhh2rVMjGIj6xP-4" value="1" style="text;html=1;align=center;verticalAlign=middle;whiteSpace=wrap;rounded=0;" parent="1" vertex="1">
          <mxGeometry x="150" y="260" width="60" height="20" as="geometry" />
        </mxCell>
        <mxCell id="ssQSO5jhh2rVMjGIj6xP-25" value="&lt;div align=&quot;left&quot;&gt;Control:&lt;/div&gt;&lt;div align=&quot;left&quot;&gt;&lt;span style=&quot;white-space: pre;&quot;&gt;- &lt;/span&gt;bit 0 é o de sincronização&lt;/div&gt;&lt;div align=&quot;left&quot;&gt;- bits 1 a 3 são Msg Type&lt;/div&gt;&lt;div align=&quot;left&quot;&gt;&lt;span style=&quot;white-space: pre;&quot;&gt;&lt;b&gt;- bit 4 é needSync&lt;/b&gt;&lt;/span&gt;&lt;/div&gt;&lt;div align=&quot;left&quot;&gt;Msg Type pode assumir 6 valores:&lt;/div&gt;&lt;div align=&quot;left&quot;&gt;- COMMOM&lt;/div&gt;&lt;div align=&quot;left&quot;&gt;- PUBLISH&lt;br&gt;- SUBSCRIBE&lt;/div&gt;&lt;div align=&quot;left&quot;&gt;&lt;b&gt;- DELAY_RESP&lt;/b&gt;&lt;/div&gt;&lt;div align=&quot;left&quot;&gt;&lt;b&gt;- LATE_SYNC&lt;/b&gt;&lt;/div&gt;&lt;div align=&quot;left&quot;&gt;&lt;b&gt;- MAC&lt;/b&gt;&lt;/div&gt;" style="shape=note;whiteSpace=wrap;html=1;backgroundOutline=1;darkOpacity=0.05;align=left;fillColor=#00D7FF;" parent="1" vertex="1">
          <mxGeometry x="240" y="810" width="180" height="180" as="geometry" />
        </mxCell>
        <mxCell id="ssQSO5jhh2rVMjGIj6xP-26" value="" style="endArrow=classic;html=1;rounded=0;entryX=0.5;entryY=1;entryDx=0;entryDy=0;" parent="1" edge="1" target="dVsTjiGW9EGKWnVv33oI-61">
          <mxGeometry width="50" height="50" relative="1" as="geometry">
            <mxPoint x="250" y="810" as="sourcePoint" />
            <mxPoint x="311.25" y="690" as="targetPoint" />
            <Array as="points">
              <mxPoint x="250" y="760" />
            </Array>
          </mxGeometry>
        </mxCell>
        <mxCell id="ssQSO5jhh2rVMjGIj6xP-27" value="Unit" style="rounded=0;whiteSpace=wrap;html=1;" parent="1" vertex="1">
          <mxGeometry x="550" y="337.5" width="56" height="20" as="geometry" />
        </mxCell>
        <mxCell id="ssQSO5jhh2rVMjGIj6xP-29" value="Sub Packet" style="text;html=1;align=center;verticalAlign=middle;whiteSpace=wrap;rounded=0;" parent="1" vertex="1">
          <mxGeometry x="466" y="340" width="84" height="15" as="geometry" />
        </mxCell>
        <mxCell id="ssQSO5jhh2rVMjGIj6xP-31" value="4" style="text;html=1;align=center;verticalAlign=middle;whiteSpace=wrap;rounded=0;" parent="1" vertex="1">
          <mxGeometry x="550" y="317.5" width="56" height="20" as="geometry" />
        </mxCell>
        <mxCell id="ssQSO5jhh2rVMjGIj6xP-32" value="Period" style="rounded=0;whiteSpace=wrap;html=1;" parent="1" vertex="1">
          <mxGeometry x="606" y="337.5" width="56" height="20" as="geometry" />
        </mxCell>
        <mxCell id="ssQSO5jhh2rVMjGIj6xP-33" value="4" style="text;html=1;align=center;verticalAlign=middle;whiteSpace=wrap;rounded=0;" parent="1" vertex="1">
          <mxGeometry x="606" y="317.5" width="56" height="20" as="geometry" />
        </mxCell>
        <mxCell id="ssQSO5jhh2rVMjGIj6xP-38" value="Unit" style="rounded=0;whiteSpace=wrap;html=1;" parent="1" vertex="1">
          <mxGeometry x="410" y="400" width="56" height="20" as="geometry" />
        </mxCell>
        <mxCell id="ssQSO5jhh2rVMjGIj6xP-39" value="Pub Packet" style="text;html=1;align=center;verticalAlign=middle;whiteSpace=wrap;rounded=0;" parent="1" vertex="1">
          <mxGeometry x="326" y="402.5" width="84" height="15" as="geometry" />
        </mxCell>
        <mxCell id="ssQSO5jhh2rVMjGIj6xP-40" value="4" style="text;html=1;align=center;verticalAlign=middle;whiteSpace=wrap;rounded=0;" parent="1" vertex="1">
          <mxGeometry x="410" y="380" width="56" height="20" as="geometry" />
        </mxCell>
        <mxCell id="ssQSO5jhh2rVMjGIj6xP-41" value="Period" style="rounded=0;whiteSpace=wrap;html=1;" parent="1" vertex="1">
          <mxGeometry x="466" y="400" width="56" height="20" as="geometry" />
        </mxCell>
        <mxCell id="ssQSO5jhh2rVMjGIj6xP-42" value="4" style="text;html=1;align=center;verticalAlign=middle;whiteSpace=wrap;rounded=0;" parent="1" vertex="1">
          <mxGeometry x="466" y="380" width="56" height="20" as="geometry" />
        </mxCell>
        <mxCell id="ssQSO5jhh2rVMjGIj6xP-43" value="Data" style="rounded=0;whiteSpace=wrap;html=1;" parent="1" vertex="1">
          <mxGeometry x="522" y="400" width="158" height="20" as="geometry" />
        </mxCell>
        <mxCell id="ssQSO5jhh2rVMjGIj6xP-44" value="4 -&amp;nbsp;1431" style="text;html=1;align=center;verticalAlign=middle;whiteSpace=wrap;rounded=0;" parent="1" vertex="1">
          <mxGeometry x="520" y="380" width="158" height="20" as="geometry" />
        </mxCell>
        <mxCell id="ssQSO5jhh2rVMjGIj6xP-45" value="" style="endArrow=none;dashed=1;html=1;rounded=0;entryX=0;entryY=1;entryDx=0;entryDy=0;exitX=0;exitY=0;exitDx=0;exitDy=0;" parent="1" source="ssQSO5jhh2rVMjGIj6xP-27" target="y25KU0WXKC6aMiE5-FGc-61" edge="1">
          <mxGeometry width="50" height="50" relative="1" as="geometry">
            <mxPoint x="210" y="430" as="sourcePoint" />
            <mxPoint x="260" y="380" as="targetPoint" />
          </mxGeometry>
        </mxCell>
        <mxCell id="ssQSO5jhh2rVMjGIj6xP-46" value="" style="endArrow=none;dashed=1;html=1;rounded=0;exitX=1;exitY=0;exitDx=0;exitDy=0;entryX=1;entryY=1;entryDx=0;entryDy=0;" parent="1" source="ssQSO5jhh2rVMjGIj6xP-32" target="y25KU0WXKC6aMiE5-FGc-61" edge="1">
          <mxGeometry width="50" height="50" relative="1" as="geometry">
            <mxPoint x="570" y="360" as="sourcePoint" />
            <mxPoint x="620" y="310" as="targetPoint" />
          </mxGeometry>
        </mxCell>
        <mxCell id="ssQSO5jhh2rVMjGIj6xP-47" value="" style="endArrow=none;dashed=1;html=1;rounded=0;exitX=0;exitY=1;exitDx=0;exitDy=0;" parent="1" source="ssQSO5jhh2rVMjGIj6xP-40" edge="1">
          <mxGeometry width="50" height="50" relative="1" as="geometry">
            <mxPoint x="430" y="360" as="sourcePoint" />
            <mxPoint x="480" y="300" as="targetPoint" />
          </mxGeometry>
        </mxCell>
        <mxCell id="ssQSO5jhh2rVMjGIj6xP-48" value="" style="endArrow=none;dashed=1;html=1;rounded=0;entryX=1;entryY=1;entryDx=0;entryDy=0;exitX=1;exitY=0;exitDx=0;exitDy=0;" parent="1" source="ssQSO5jhh2rVMjGIj6xP-43" target="y25KU0WXKC6aMiE5-FGc-61" edge="1">
          <mxGeometry width="50" height="50" relative="1" as="geometry">
            <mxPoint x="624" y="520" as="sourcePoint" />
            <mxPoint x="510" y="430" as="targetPoint" />
          </mxGeometry>
        </mxCell>
        <mxCell id="ssQSO5jhh2rVMjGIj6xP-65" value="&lt;div align=&quot;left&quot;&gt;Sub Packet e Pub Packet são da camada SmartData, mensagens do tipo COMMOM não estão limitadas a estrutura de Pub Packet ou Sub Packet.&lt;/div&gt;" style="shape=note;whiteSpace=wrap;html=1;backgroundOutline=1;darkOpacity=0.05;align=left;fillColor=#E6E6E6;" parent="1" vertex="1">
          <mxGeometry x="691.25" y="707.5" width="220" height="100" as="geometry" />
        </mxCell>
        <mxCell id="_qdxAJ7Zo68JUZ1Iqq-v-1" value="Timestamp" style="rounded=0;whiteSpace=wrap;html=1;" parent="1" vertex="1">
          <mxGeometry x="330" y="200" width="70" height="20" as="geometry" />
        </mxCell>
        <mxCell id="_qdxAJ7Zo68JUZ1Iqq-v-2" value="8" style="text;html=1;align=center;verticalAlign=middle;whiteSpace=wrap;rounded=0;" parent="1" vertex="1">
          <mxGeometry x="330" y="180" width="70" height="20" as="geometry" />
        </mxCell>
        <mxCell id="_qdxAJ7Zo68JUZ1Iqq-v-6" value="Timestamp" style="rounded=0;whiteSpace=wrap;html=1;" parent="1" vertex="1">
          <mxGeometry x="330" y="280" width="70" height="20" as="geometry" />
        </mxCell>
        <mxCell id="_qdxAJ7Zo68JUZ1Iqq-v-7" value="8" style="text;html=1;align=center;verticalAlign=middle;whiteSpace=wrap;rounded=0;" parent="1" vertex="1">
          <mxGeometry x="330" y="260" width="70" height="20" as="geometry" />
        </mxCell>
        <mxCell id="_qdxAJ7Zo68JUZ1Iqq-v-48" style="edgeStyle=orthogonalEdgeStyle;rounded=0;orthogonalLoop=1;jettySize=auto;html=1;exitX=-0.003;exitY=0.112;exitDx=0;exitDy=0;exitPerimeter=0;" parent="1" source="_qdxAJ7Zo68JUZ1Iqq-v-47" edge="1">
          <mxGeometry relative="1" as="geometry">
            <mxPoint x="391.25" y="670" as="targetPoint" />
            <Array as="points">
              <mxPoint x="391.25" y="626" />
              <mxPoint x="391.25" y="670" />
            </Array>
          </mxGeometry>
        </mxCell>
        <mxCell id="_qdxAJ7Zo68JUZ1Iqq-v-47" value="Timestamp é interpretado como tempo de recebimento na mensagem Delay Response. Demais mensagens ele é interpretado como tempo em que a mensagem foi enviada." style="shape=note;whiteSpace=wrap;html=1;backgroundOutline=1;darkOpacity=0.05;align=left;fillColor=#E6E6E6;" parent="1" vertex="1">
          <mxGeometry x="691.25" y="617.5" width="270" height="72.5" as="geometry" />
        </mxCell>
        <mxCell id="dVsTjiGW9EGKWnVv33oI-1" value="coord_y" style="rounded=0;whiteSpace=wrap;html=1;" vertex="1" parent="1">
          <mxGeometry x="270" y="200" width="60" height="20" as="geometry" />
        </mxCell>
        <mxCell id="dVsTjiGW9EGKWnVv33oI-2" value="8" style="text;html=1;align=center;verticalAlign=middle;whiteSpace=wrap;rounded=0;" vertex="1" parent="1">
          <mxGeometry x="270" y="180" width="60" height="20" as="geometry" />
        </mxCell>
        <mxCell id="dVsTjiGW9EGKWnVv33oI-3" value="coord_x" style="rounded=0;whiteSpace=wrap;html=1;" vertex="1" parent="1">
          <mxGeometry x="210" y="200" width="60" height="20" as="geometry" />
        </mxCell>
        <mxCell id="dVsTjiGW9EGKWnVv33oI-4" value="8" style="text;html=1;align=center;verticalAlign=middle;whiteSpace=wrap;rounded=0;" vertex="1" parent="1">
          <mxGeometry x="210" y="180" width="60" height="20" as="geometry" />
        </mxCell>
        <mxCell id="dVsTjiGW9EGKWnVv33oI-5" value="coord_y" style="rounded=0;whiteSpace=wrap;html=1;" vertex="1" parent="1">
          <mxGeometry x="270" y="280" width="60" height="20" as="geometry" />
        </mxCell>
        <mxCell id="dVsTjiGW9EGKWnVv33oI-6" value="8" style="text;html=1;align=center;verticalAlign=middle;whiteSpace=wrap;rounded=0;" vertex="1" parent="1">
          <mxGeometry x="270" y="260" width="60" height="20" as="geometry" />
        </mxCell>
        <mxCell id="dVsTjiGW9EGKWnVv33oI-7" value="coord_x" style="rounded=0;whiteSpace=wrap;html=1;" vertex="1" parent="1">
          <mxGeometry x="210" y="280" width="60" height="20" as="geometry" />
        </mxCell>
        <mxCell id="dVsTjiGW9EGKWnVv33oI-8" value="8" style="text;html=1;align=center;verticalAlign=middle;whiteSpace=wrap;rounded=0;" vertex="1" parent="1">
          <mxGeometry x="210" y="260" width="60" height="20" as="geometry" />
        </mxCell>
        <mxCell id="dVsTjiGW9EGKWnVv33oI-14" value="Tag" style="rounded=0;whiteSpace=wrap;html=1;" vertex="1" parent="1">
          <mxGeometry x="440" y="200" width="40" height="20" as="geometry" />
        </mxCell>
        <mxCell id="dVsTjiGW9EGKWnVv33oI-15" value="16" style="text;html=1;align=center;verticalAlign=middle;whiteSpace=wrap;rounded=0;" vertex="1" parent="1">
          <mxGeometry x="440" y="180" width="40" height="20" as="geometry" />
        </mxCell>
        <mxCell id="dVsTjiGW9EGKWnVv33oI-16" value="Tag" style="rounded=0;whiteSpace=wrap;html=1;" vertex="1" parent="1">
          <mxGeometry x="440" y="280" width="40" height="20" as="geometry" />
        </mxCell>
        <mxCell id="dVsTjiGW9EGKWnVv33oI-17" value="16" style="text;html=1;align=center;verticalAlign=middle;whiteSpace=wrap;rounded=0;" vertex="1" parent="1">
          <mxGeometry x="440" y="260" width="40" height="20" as="geometry" />
        </mxCell>
        <mxCell id="dVsTjiGW9EGKWnVv33oI-18" value="Mac dest" style="rounded=0;whiteSpace=wrap;html=1;" vertex="1" parent="1">
          <mxGeometry x="2.6645352591003757e-15" y="510" width="60" height="20" as="geometry" />
        </mxCell>
        <mxCell id="dVsTjiGW9EGKWnVv33oI-19" value="Mac src" style="rounded=0;whiteSpace=wrap;html=1;" vertex="1" parent="1">
          <mxGeometry x="60" y="510" width="60" height="20" as="geometry" />
        </mxCell>
        <mxCell id="dVsTjiGW9EGKWnVv33oI-20" value="Ethertype" style="rounded=0;whiteSpace=wrap;html=1;" vertex="1" parent="1">
          <mxGeometry x="120" y="510" width="60" height="20" as="geometry" />
        </mxCell>
        <mxCell id="dVsTjiGW9EGKWnVv33oI-21" value="Payload" style="rounded=0;whiteSpace=wrap;html=1;" vertex="1" parent="1">
          <mxGeometry x="180" y="510" width="500" height="20" as="geometry" />
        </mxCell>
        <mxCell id="dVsTjiGW9EGKWnVv33oI-22" value="Ethernet Frame" style="text;html=1;align=center;verticalAlign=middle;whiteSpace=wrap;rounded=0;" vertex="1" parent="1">
          <mxGeometry x="-100" y="510" width="100" height="20" as="geometry" />
        </mxCell>
        <mxCell id="dVsTjiGW9EGKWnVv33oI-23" value="Protocol Packet" style="text;html=1;align=center;verticalAlign=middle;whiteSpace=wrap;rounded=0;" vertex="1" parent="1">
          <mxGeometry x="-100" y="590" width="100" height="20" as="geometry" />
        </mxCell>
        <mxCell id="dVsTjiGW9EGKWnVv33oI-24" value="Message" style="text;html=1;align=center;verticalAlign=middle;whiteSpace=wrap;rounded=0;" vertex="1" parent="1">
          <mxGeometry x="-100" y="670" width="100" height="20" as="geometry" />
        </mxCell>
        <mxCell id="dVsTjiGW9EGKWnVv33oI-25" value="" style="endArrow=none;dashed=1;html=1;rounded=0;entryX=1;entryY=1;entryDx=0;entryDy=0;exitX=1;exitY=1;exitDx=0;exitDy=0;" edge="1" parent="1" source="dVsTjiGW9EGKWnVv33oI-48" target="dVsTjiGW9EGKWnVv33oI-36">
          <mxGeometry width="50" height="50" relative="1" as="geometry">
            <mxPoint x="690" y="670" as="sourcePoint" />
            <mxPoint x="690" y="610" as="targetPoint" />
          </mxGeometry>
        </mxCell>
        <mxCell id="dVsTjiGW9EGKWnVv33oI-26" value="" style="endArrow=none;dashed=1;html=1;rounded=0;entryX=0;entryY=1;entryDx=0;entryDy=0;exitX=0;exitY=0;exitDx=0;exitDy=0;" edge="1" parent="1">
          <mxGeometry width="50" height="50" relative="1" as="geometry">
            <mxPoint x="-3.0668800832245324e-12" y="670" as="sourcePoint" />
            <mxPoint x="2.6645352591003757e-15" y="610" as="targetPoint" />
          </mxGeometry>
        </mxCell>
        <mxCell id="dVsTjiGW9EGKWnVv33oI-27" value="" style="endArrow=none;dashed=1;html=1;rounded=0;exitX=0;exitY=0;exitDx=0;exitDy=0;entryX=0;entryY=1;entryDx=0;entryDy=0;" edge="1" parent="1">
          <mxGeometry width="50" height="50" relative="1" as="geometry">
            <mxPoint x="2.6645352591003757e-15" y="590" as="sourcePoint" />
            <mxPoint x="180.00000000000045" y="530" as="targetPoint" />
          </mxGeometry>
        </mxCell>
        <mxCell id="dVsTjiGW9EGKWnVv33oI-28" value="" style="endArrow=none;dashed=1;html=1;rounded=0;exitX=1;exitY=1;exitDx=0;exitDy=0;entryX=1;entryY=1;entryDx=0;entryDy=0;" edge="1" parent="1" target="dVsTjiGW9EGKWnVv33oI-21" source="dVsTjiGW9EGKWnVv33oI-39">
          <mxGeometry width="50" height="50" relative="1" as="geometry">
            <mxPoint x="690" y="590" as="sourcePoint" />
            <mxPoint x="689.9999999999995" y="530" as="targetPoint" />
          </mxGeometry>
        </mxCell>
        <mxCell id="dVsTjiGW9EGKWnVv33oI-29" value="6" style="text;html=1;align=center;verticalAlign=middle;whiteSpace=wrap;rounded=0;" vertex="1" parent="1">
          <mxGeometry x="10.000000000000004" y="490" width="20" height="20" as="geometry" />
        </mxCell>
        <mxCell id="dVsTjiGW9EGKWnVv33oI-30" value="6" style="text;html=1;align=center;verticalAlign=middle;whiteSpace=wrap;rounded=0;" vertex="1" parent="1">
          <mxGeometry x="70" y="490" width="20" height="20" as="geometry" />
        </mxCell>
        <mxCell id="dVsTjiGW9EGKWnVv33oI-31" value="2" style="text;html=1;align=center;verticalAlign=middle;whiteSpace=wrap;rounded=0;" vertex="1" parent="1">
          <mxGeometry x="130" y="490" width="20" height="20" as="geometry" />
        </mxCell>
        <mxCell id="dVsTjiGW9EGKWnVv33oI-32" value="46 - 1500" style="text;html=1;align=center;verticalAlign=middle;whiteSpace=wrap;rounded=0;" vertex="1" parent="1">
          <mxGeometry x="180" y="490" width="500" height="20" as="geometry" />
        </mxCell>
        <mxCell id="dVsTjiGW9EGKWnVv33oI-33" value="Protocol Address" style="text;html=1;align=center;verticalAlign=middle;whiteSpace=wrap;rounded=0;" vertex="1" parent="1">
          <mxGeometry x="-100" y="730" width="100" height="20" as="geometry" />
        </mxCell>
        <mxCell id="dVsTjiGW9EGKWnVv33oI-34" value="Address dest" style="rounded=0;whiteSpace=wrap;html=1;" vertex="1" parent="1">
          <mxGeometry x="2.6645352591003757e-15" y="590" width="80" height="20" as="geometry" />
        </mxCell>
        <mxCell id="dVsTjiGW9EGKWnVv33oI-35" value="Length" style="rounded=0;whiteSpace=wrap;html=1;" vertex="1" parent="1">
          <mxGeometry x="400" y="590" width="40" height="20" as="geometry" />
        </mxCell>
        <mxCell id="dVsTjiGW9EGKWnVv33oI-36" value="Data" style="rounded=0;whiteSpace=wrap;html=1;" vertex="1" parent="1">
          <mxGeometry x="480" y="590" width="200" height="20" as="geometry" />
        </mxCell>
        <mxCell id="dVsTjiGW9EGKWnVv33oI-37" value="12" style="text;html=1;align=center;verticalAlign=middle;whiteSpace=wrap;rounded=0;" vertex="1" parent="1">
          <mxGeometry x="2.6645352591003757e-15" y="570" width="80" height="20" as="geometry" />
        </mxCell>
        <mxCell id="dVsTjiGW9EGKWnVv33oI-38" value="12" style="text;html=1;align=center;verticalAlign=middle;whiteSpace=wrap;rounded=0;" vertex="1" parent="1">
          <mxGeometry x="80" y="570" width="70" height="20" as="geometry" />
        </mxCell>
        <mxCell id="dVsTjiGW9EGKWnVv33oI-39" value="0 - 1431" style="text;html=1;align=center;verticalAlign=middle;whiteSpace=wrap;rounded=0;" vertex="1" parent="1">
          <mxGeometry x="480" y="570" width="200" height="20" as="geometry" />
        </mxCell>
        <mxCell id="dVsTjiGW9EGKWnVv33oI-40" value="Address src" style="rounded=0;whiteSpace=wrap;html=1;" vertex="1" parent="1">
          <mxGeometry x="80" y="590" width="70" height="20" as="geometry" />
        </mxCell>
        <mxCell id="dVsTjiGW9EGKWnVv33oI-41" value="4" style="text;html=1;align=center;verticalAlign=middle;whiteSpace=wrap;rounded=0;" vertex="1" parent="1">
          <mxGeometry x="400" y="570" width="40" height="20" as="geometry" />
        </mxCell>
        <mxCell id="dVsTjiGW9EGKWnVv33oI-42" value="" style="endArrow=none;dashed=1;html=1;rounded=0;entryX=0;entryY=1;entryDx=0;entryDy=0;exitX=0;exitY=1;exitDx=0;exitDy=0;" edge="1" parent="1" source="dVsTjiGW9EGKWnVv33oI-54" target="dVsTjiGW9EGKWnVv33oI-43">
          <mxGeometry width="50" height="50" relative="1" as="geometry">
            <mxPoint x="2.6645352591003757e-15" y="760" as="sourcePoint" />
            <mxPoint x="30.000000000000004" y="690" as="targetPoint" />
          </mxGeometry>
        </mxCell>
        <mxCell id="dVsTjiGW9EGKWnVv33oI-43" value="Address dest" style="rounded=0;whiteSpace=wrap;html=1;" vertex="1" parent="1">
          <mxGeometry x="2.6645352591003757e-15" y="670" width="80" height="20" as="geometry" />
        </mxCell>
        <mxCell id="dVsTjiGW9EGKWnVv33oI-44" value="Length" style="rounded=0;whiteSpace=wrap;html=1;" vertex="1" parent="1">
          <mxGeometry x="400" y="670" width="40" height="20" as="geometry" />
        </mxCell>
        <mxCell id="dVsTjiGW9EGKWnVv33oI-45" value="Data" style="rounded=0;whiteSpace=wrap;html=1;" vertex="1" parent="1">
          <mxGeometry x="480" y="670" width="200" height="20" as="geometry" />
        </mxCell>
        <mxCell id="dVsTjiGW9EGKWnVv33oI-46" value="12" style="text;html=1;align=center;verticalAlign=middle;whiteSpace=wrap;rounded=0;" vertex="1" parent="1">
          <mxGeometry x="2.6645352591003757e-15" y="650" width="80" height="20" as="geometry" />
        </mxCell>
        <mxCell id="dVsTjiGW9EGKWnVv33oI-47" value="12" style="text;html=1;align=center;verticalAlign=middle;whiteSpace=wrap;rounded=0;" vertex="1" parent="1">
          <mxGeometry x="80" y="650" width="70" height="20" as="geometry" />
        </mxCell>
        <mxCell id="dVsTjiGW9EGKWnVv33oI-48" value="0 -&amp;nbsp;1431" style="text;html=1;align=center;verticalAlign=middle;whiteSpace=wrap;rounded=0;" vertex="1" parent="1">
          <mxGeometry x="480" y="650" width="200" height="20" as="geometry" />
        </mxCell>
        <mxCell id="dVsTjiGW9EGKWnVv33oI-49" value="Address src" style="rounded=0;whiteSpace=wrap;html=1;" vertex="1" parent="1">
          <mxGeometry x="80" y="670" width="70" height="20" as="geometry" />
        </mxCell>
        <mxCell id="dVsTjiGW9EGKWnVv33oI-50" value="4" style="text;html=1;align=center;verticalAlign=middle;whiteSpace=wrap;rounded=0;" vertex="1" parent="1">
          <mxGeometry x="400" y="650" width="40" height="20" as="geometry" />
        </mxCell>
        <mxCell id="dVsTjiGW9EGKWnVv33oI-51" value="MAC" style="rounded=0;whiteSpace=wrap;html=1;" vertex="1" parent="1">
          <mxGeometry x="2.6645352591003757e-15" y="730" width="50" height="20" as="geometry" />
        </mxCell>
        <mxCell id="dVsTjiGW9EGKWnVv33oI-52" value="SysID" style="rounded=0;whiteSpace=wrap;html=1;" vertex="1" parent="1">
          <mxGeometry x="50" y="730" width="50" height="20" as="geometry" />
        </mxCell>
        <mxCell id="dVsTjiGW9EGKWnVv33oI-53" value="Port" style="rounded=0;whiteSpace=wrap;html=1;" vertex="1" parent="1">
          <mxGeometry x="100" y="730" width="40" height="20" as="geometry" />
        </mxCell>
        <mxCell id="dVsTjiGW9EGKWnVv33oI-54" value="6" style="text;html=1;align=center;verticalAlign=middle;whiteSpace=wrap;rounded=0;" vertex="1" parent="1">
          <mxGeometry x="2.6645352591003757e-15" y="710" width="50" height="20" as="geometry" />
        </mxCell>
        <mxCell id="dVsTjiGW9EGKWnVv33oI-55" value="4" style="text;html=1;align=center;verticalAlign=middle;whiteSpace=wrap;rounded=0;" vertex="1" parent="1">
          <mxGeometry x="50" y="710" width="50" height="20" as="geometry" />
        </mxCell>
        <mxCell id="dVsTjiGW9EGKWnVv33oI-56" value="2" style="text;html=1;align=center;verticalAlign=middle;whiteSpace=wrap;rounded=0;" vertex="1" parent="1">
          <mxGeometry x="100" y="710" width="40" height="20" as="geometry" />
        </mxCell>
        <mxCell id="dVsTjiGW9EGKWnVv33oI-57" value="" style="endArrow=none;dashed=1;html=1;rounded=0;entryX=0;entryY=1;entryDx=0;entryDy=0;exitX=1;exitY=1;exitDx=0;exitDy=0;" edge="1" parent="1" source="dVsTjiGW9EGKWnVv33oI-56">
          <mxGeometry width="50" height="50" relative="1" as="geometry">
            <mxPoint x="79.43" y="730" as="sourcePoint" />
            <mxPoint x="79.43" y="690" as="targetPoint" />
          </mxGeometry>
        </mxCell>
        <mxCell id="dVsTjiGW9EGKWnVv33oI-59" value="Control" style="rounded=0;whiteSpace=wrap;html=1;" vertex="1" parent="1">
          <mxGeometry x="150" y="590" width="60" height="20" as="geometry" />
        </mxCell>
        <mxCell id="dVsTjiGW9EGKWnVv33oI-60" value="1" style="text;html=1;align=center;verticalAlign=middle;whiteSpace=wrap;rounded=0;" vertex="1" parent="1">
          <mxGeometry x="150" y="570" width="60" height="20" as="geometry" />
        </mxCell>
        <mxCell id="dVsTjiGW9EGKWnVv33oI-61" value="Control" style="rounded=0;whiteSpace=wrap;html=1;" vertex="1" parent="1">
          <mxGeometry x="150" y="670" width="60" height="20" as="geometry" />
        </mxCell>
        <mxCell id="dVsTjiGW9EGKWnVv33oI-62" value="1" style="text;html=1;align=center;verticalAlign=middle;whiteSpace=wrap;rounded=0;" vertex="1" parent="1">
          <mxGeometry x="150" y="650" width="60" height="20" as="geometry" />
        </mxCell>
        <mxCell id="dVsTjiGW9EGKWnVv33oI-63" value="Unit" style="rounded=0;whiteSpace=wrap;html=1;" vertex="1" parent="1">
          <mxGeometry x="550" y="727.5" width="56" height="20" as="geometry" />
        </mxCell>
        <mxCell id="dVsTjiGW9EGKWnVv33oI-64" value="Sub Packet" style="text;html=1;align=center;verticalAlign=middle;whiteSpace=wrap;rounded=0;" vertex="1" parent="1">
          <mxGeometry x="466" y="730" width="84" height="15" as="geometry" />
        </mxCell>
        <mxCell id="dVsTjiGW9EGKWnVv33oI-65" value="4" style="text;html=1;align=center;verticalAlign=middle;whiteSpace=wrap;rounded=0;" vertex="1" parent="1">
          <mxGeometry x="550" y="707.5" width="56" height="20" as="geometry" />
        </mxCell>
        <mxCell id="dVsTjiGW9EGKWnVv33oI-66" value="Period" style="rounded=0;whiteSpace=wrap;html=1;" vertex="1" parent="1">
          <mxGeometry x="606" y="727.5" width="56" height="20" as="geometry" />
        </mxCell>
        <mxCell id="dVsTjiGW9EGKWnVv33oI-67" value="4" style="text;html=1;align=center;verticalAlign=middle;whiteSpace=wrap;rounded=0;" vertex="1" parent="1">
          <mxGeometry x="606" y="707.5" width="56" height="20" as="geometry" />
        </mxCell>
        <mxCell id="dVsTjiGW9EGKWnVv33oI-68" value="Unit" style="rounded=0;whiteSpace=wrap;html=1;" vertex="1" parent="1">
          <mxGeometry x="410" y="780" width="56" height="20" as="geometry" />
        </mxCell>
        <mxCell id="dVsTjiGW9EGKWnVv33oI-69" value="Pub Packet" style="text;html=1;align=center;verticalAlign=middle;whiteSpace=wrap;rounded=0;" vertex="1" parent="1">
          <mxGeometry x="326" y="782.5" width="84" height="15" as="geometry" />
        </mxCell>
        <mxCell id="dVsTjiGW9EGKWnVv33oI-70" value="4" style="text;html=1;align=center;verticalAlign=middle;whiteSpace=wrap;rounded=0;" vertex="1" parent="1">
          <mxGeometry x="410" y="760" width="56" height="20" as="geometry" />
        </mxCell>
        <mxCell id="dVsTjiGW9EGKWnVv33oI-71" value="Period" style="rounded=0;whiteSpace=wrap;html=1;" vertex="1" parent="1">
          <mxGeometry x="466" y="780" width="56" height="20" as="geometry" />
        </mxCell>
        <mxCell id="dVsTjiGW9EGKWnVv33oI-72" value="4" style="text;html=1;align=center;verticalAlign=middle;whiteSpace=wrap;rounded=0;" vertex="1" parent="1">
          <mxGeometry x="466" y="760" width="56" height="20" as="geometry" />
        </mxCell>
        <mxCell id="dVsTjiGW9EGKWnVv33oI-73" value="Data" style="rounded=0;whiteSpace=wrap;html=1;" vertex="1" parent="1">
          <mxGeometry x="522" y="780" width="158" height="20" as="geometry" />
        </mxCell>
        <mxCell id="dVsTjiGW9EGKWnVv33oI-74" value="4 -&amp;nbsp;1431" style="text;html=1;align=center;verticalAlign=middle;whiteSpace=wrap;rounded=0;" vertex="1" parent="1">
          <mxGeometry x="520" y="760" width="158" height="20" as="geometry" />
        </mxCell>
        <mxCell id="dVsTjiGW9EGKWnVv33oI-75" value="" style="endArrow=none;dashed=1;html=1;rounded=0;entryX=0;entryY=1;entryDx=0;entryDy=0;exitX=0;exitY=0;exitDx=0;exitDy=0;" edge="1" parent="1" source="dVsTjiGW9EGKWnVv33oI-63" target="dVsTjiGW9EGKWnVv33oI-45">
          <mxGeometry width="50" height="50" relative="1" as="geometry">
            <mxPoint x="210" y="820" as="sourcePoint" />
            <mxPoint x="260" y="770" as="targetPoint" />
          </mxGeometry>
        </mxCell>
        <mxCell id="dVsTjiGW9EGKWnVv33oI-76" value="" style="endArrow=none;dashed=1;html=1;rounded=0;exitX=1;exitY=0;exitDx=0;exitDy=0;entryX=1;entryY=1;entryDx=0;entryDy=0;" edge="1" parent="1" source="dVsTjiGW9EGKWnVv33oI-66" target="dVsTjiGW9EGKWnVv33oI-45">
          <mxGeometry width="50" height="50" relative="1" as="geometry">
            <mxPoint x="570" y="750" as="sourcePoint" />
            <mxPoint x="620" y="700" as="targetPoint" />
          </mxGeometry>
        </mxCell>
        <mxCell id="dVsTjiGW9EGKWnVv33oI-77" value="" style="endArrow=none;dashed=1;html=1;rounded=0;exitX=0;exitY=1;exitDx=0;exitDy=0;" edge="1" parent="1" source="dVsTjiGW9EGKWnVv33oI-70">
          <mxGeometry width="50" height="50" relative="1" as="geometry">
            <mxPoint x="430" y="750" as="sourcePoint" />
            <mxPoint x="480" y="690" as="targetPoint" />
          </mxGeometry>
        </mxCell>
        <mxCell id="dVsTjiGW9EGKWnVv33oI-78" value="" style="endArrow=none;dashed=1;html=1;rounded=0;entryX=1;entryY=1;entryDx=0;entryDy=0;" edge="1" parent="1" target="dVsTjiGW9EGKWnVv33oI-45">
          <mxGeometry width="50" height="50" relative="1" as="geometry">
            <mxPoint x="680" y="790" as="sourcePoint" />
            <mxPoint x="690" y="690" as="targetPoint" />
          </mxGeometry>
        </mxCell>
        <mxCell id="dVsTjiGW9EGKWnVv33oI-79" value="Timestamp" style="rounded=0;whiteSpace=wrap;html=1;" vertex="1" parent="1">
          <mxGeometry x="330" y="590" width="70" height="20" as="geometry" />
        </mxCell>
        <mxCell id="dVsTjiGW9EGKWnVv33oI-80" value="8" style="text;html=1;align=center;verticalAlign=middle;whiteSpace=wrap;rounded=0;" vertex="1" parent="1">
          <mxGeometry x="330" y="570" width="70" height="20" as="geometry" />
        </mxCell>
        <mxCell id="dVsTjiGW9EGKWnVv33oI-81" value="Timestamp" style="rounded=0;whiteSpace=wrap;html=1;" vertex="1" parent="1">
          <mxGeometry x="330" y="670" width="70" height="20" as="geometry" />
        </mxCell>
        <mxCell id="dVsTjiGW9EGKWnVv33oI-82" value="8" style="text;html=1;align=center;verticalAlign=middle;whiteSpace=wrap;rounded=0;" vertex="1" parent="1">
          <mxGeometry x="330" y="650" width="70" height="20" as="geometry" />
        </mxCell>
        <mxCell id="dVsTjiGW9EGKWnVv33oI-83" value="coord_y" style="rounded=0;whiteSpace=wrap;html=1;" vertex="1" parent="1">
          <mxGeometry x="270" y="590" width="60" height="20" as="geometry" />
        </mxCell>
        <mxCell id="dVsTjiGW9EGKWnVv33oI-84" value="8" style="text;html=1;align=center;verticalAlign=middle;whiteSpace=wrap;rounded=0;" vertex="1" parent="1">
          <mxGeometry x="270" y="570" width="60" height="20" as="geometry" />
        </mxCell>
        <mxCell id="dVsTjiGW9EGKWnVv33oI-85" value="coord_x" style="rounded=0;whiteSpace=wrap;html=1;" vertex="1" parent="1">
          <mxGeometry x="210" y="590" width="60" height="20" as="geometry" />
        </mxCell>
        <mxCell id="dVsTjiGW9EGKWnVv33oI-86" value="8" style="text;html=1;align=center;verticalAlign=middle;whiteSpace=wrap;rounded=0;" vertex="1" parent="1">
          <mxGeometry x="210" y="570" width="60" height="20" as="geometry" />
        </mxCell>
        <mxCell id="dVsTjiGW9EGKWnVv33oI-87" value="coord_y" style="rounded=0;whiteSpace=wrap;html=1;" vertex="1" parent="1">
          <mxGeometry x="270" y="670" width="60" height="20" as="geometry" />
        </mxCell>
        <mxCell id="dVsTjiGW9EGKWnVv33oI-88" value="8" style="text;html=1;align=center;verticalAlign=middle;whiteSpace=wrap;rounded=0;" vertex="1" parent="1">
          <mxGeometry x="270" y="650" width="60" height="20" as="geometry" />
        </mxCell>
        <mxCell id="dVsTjiGW9EGKWnVv33oI-89" value="coord_x" style="rounded=0;whiteSpace=wrap;html=1;" vertex="1" parent="1">
          <mxGeometry x="210" y="670" width="60" height="20" as="geometry" />
        </mxCell>
        <mxCell id="dVsTjiGW9EGKWnVv33oI-90" value="8" style="text;html=1;align=center;verticalAlign=middle;whiteSpace=wrap;rounded=0;" vertex="1" parent="1">
          <mxGeometry x="210" y="650" width="60" height="20" as="geometry" />
        </mxCell>
        <mxCell id="dVsTjiGW9EGKWnVv33oI-91" value="Tag" style="rounded=0;whiteSpace=wrap;html=1;" vertex="1" parent="1">
          <mxGeometry x="440" y="590" width="40" height="20" as="geometry" />
        </mxCell>
        <mxCell id="dVsTjiGW9EGKWnVv33oI-92" value="16" style="text;html=1;align=center;verticalAlign=middle;whiteSpace=wrap;rounded=0;" vertex="1" parent="1">
          <mxGeometry x="440" y="570" width="40" height="20" as="geometry" />
        </mxCell>
        <mxCell id="dVsTjiGW9EGKWnVv33oI-93" value="Tag" style="rounded=0;whiteSpace=wrap;html=1;" vertex="1" parent="1">
          <mxGeometry x="440" y="670" width="40" height="20" as="geometry" />
        </mxCell>
        <mxCell id="dVsTjiGW9EGKWnVv33oI-94" value="16" style="text;html=1;align=center;verticalAlign=middle;whiteSpace=wrap;rounded=0;" vertex="1" parent="1">
          <mxGeometry x="440" y="650" width="40" height="20" as="geometry" />
        </mxCell>
      </root>
    </mxGraphModel>
  </diagram>
</mxfile>
